<svg version="1.0" xmlns="http://www.w3.org/2000/svg"
 width="379.000000pt" height="116.000000pt" viewBox="0 0 379.000000 116.000000"
 preserveAspectRatio="xMidYMid meet">

<g transform="translate(0.000000,116.000000) scale(0.100000,-0.100000)"
fill="#000000" stroke="none">
<path d="M605 1093 c-112 -35 -226 -139 -281 -259 -30 -64 -37 -91 -41 -169
-7 -107 -1 -136 29 -165 26 -24 90 -27 139 -5 19 8 30 14 24 15 -5 0 8 9 29
21 44 23 62 39 102 93 19 27 25 41 16 44 -13 4 -17 32 -4 32 4 0 20 12 37 26
16 14 45 34 63 46 41 25 47 19 56 -60 4 -31 9 -67 13 -81 5 -21 3 -23 -16 -18
-11 3 -21 2 -21 -1 0 -4 -30 -39 -67 -77 -116 -120 -264 -173 -364 -131 -19 8
-44 25 -56 38 -25 27 -46 107 -37 143 10 39 -9 29 -34 -17 -40 -76 -25 -159
39 -220 122 -116 441 -13 579 187 14 20 33 44 42 54 25 25 78 132 78 159 0 13
-6 22 -15 22 -8 0 -15 4 -15 10 0 10 140 150 150 150 7 0 50 -82 50 -95 0 -5
7 -22 14 -37 21 -40 24 -83 6 -84 -8 0 -20 -2 -26 -2 -6 -1 -21 -26 -34 -54
-58 -132 -131 -228 -224 -295 -28 -21 -53 -40 -56 -43 -3 -3 -23 -14 -45 -25
-22 -11 -44 -25 -50 -31 -5 -7 -35 -19 -65 -27 -187 -54 -321 -49 -405 16 -72
56 -95 99 -95 181 l-1 61 -16 -35 c-22 -48 -22 -200 -1 -200 4 0 8 -6 8 -13 0
-39 108 -99 222 -124 70 -15 89 -15 156 -4 42 7 150 14 239 14 114 2 166 6
174 15 7 6 19 12 27 12 32 0 202 135 202 160 0 5 6 15 13 22 13 14 37 62 58
118 9 23 14 79 14 160 0 81 -5 137 -14 160 -21 56 -45 104 -58 118 -7 7 -13
17 -13 21 0 16 -110 115 -155 139 -99 53 -261 68 -370 35z"/>
<path d="M1306 628 c-4 -123 -10 -233 -13 -245 -5 -21 -2 -23 40 -23 l44 0 8
173 c9 198 14 196 47 -23 l23 -150 47 0 c32 0 48 4 48 13 0 16 48 228 66 287
12 41 13 30 11 -128 l-2 -172 41 0 41 0 6 182 c4 99 7 210 7 245 l0 63 -68 0
-67 0 -33 -127 c-18 -71 -32 -136 -32 -145 0 -10 -4 -18 -9 -18 -4 0 -11 26
-15 58 -3 31 -14 96 -23 145 l-16 87 -72 0 -72 0 -7 -222z"/>
<path d="M2130 778 c0 -40 -3 -151 -7 -245 l-6 -173 46 0 46 0 5 43 c3 23 7
133 10 245 l6 202 -50 0 -50 0 0 -72z"/>
<path d="M2510 810 l0 -40 44 0 c37 0 45 4 50 23 14 51 9 57 -44 57 l-50 0 0
-40z"/>
<path d="M2652 843 c5 -8 51 -109 69 -148 26 -58 27 -71 10 -105 -42 -84 -103
-196 -112 -204 -19 -20 -7 -26 49 -26 l58 0 39 82 38 82 14 -40 c7 -21 20 -58
29 -81 l16 -43 59 0 c32 0 59 2 59 4 0 2 -12 30 -26 62 -14 33 -35 79 -45 104
-11 25 -24 53 -30 63 -8 14 3 43 50 138 l61 119 -55 0 -54 0 -28 -60 c-15 -33
-31 -60 -34 -60 -3 0 -14 26 -26 58 l-20 57 -62 3 c-35 2 -61 -1 -59 -5z"/>
<path d="M3600 778 c0 -40 -3 -151 -7 -245 l-6 -173 46 0 46 0 5 43 c3 23 7
133 10 245 l6 202 -50 0 -50 0 0 -72z"/>
<path d="M2400 821 c0 -5 -18 -11 -39 -15 -39 -6 -51 -20 -51 -57 0 -12 -7
-19 -20 -19 -17 0 -20 -7 -20 -50 0 -42 3 -50 18 -50 17 0 18 -8 14 -105 -6
-146 8 -174 89 -175 36 0 56 19 62 62 5 34 4 37 -21 40 -27 3 -27 4 -30 91
l-3 87 31 0 c29 0 30 1 30 50 0 49 0 50 -31 50 l-32 0 5 50 c3 28 3 50 2 50
-2 0 -4 -4 -4 -9z"/>
<path d="M3101 733 c-98 -39 -126 -273 -42 -353 21 -21 36 -25 83 -25 31 0 59
3 63 7 4 4 10 27 12 50 l5 44 -41 -4 c-59 -6 -71 8 -71 82 0 85 18 109 76 104
l44 -3 0 46 c0 44 -2 47 -31 53 -37 7 -78 7 -98 -1z"/>
<path d="M3370 733 c-31 -12 -78 -75 -89 -117 -24 -96 -12 -172 36 -224 33
-36 35 -37 108 -37 40 0 76 3 80 7 4 4 10 26 12 50 l5 43 -55 -3 c-70 -5 -97
9 -97 48 l0 30 90 0 90 0 0 38 c0 57 -20 114 -47 140 -26 24 -102 38 -133 25z
m76 -90 c27 -37 18 -53 -31 -53 -49 0 -56 12 -33 50 16 25 46 26 64 3z"/>
<path d="M1787 633 c-16 -231 -6 -270 70 -280 31 -4 44 0 68 21 29 25 30 25
33 6 3 -17 11 -20 53 -20 l49 0 0 133 c0 72 3 156 6 185 l7 52 -52 0 -51 0 -1
-97 c0 -54 -5 -114 -12 -133 -10 -30 -17 -35 -42 -35 l-30 0 0 133 0 132 -46
0 -46 0 -6 -97z"/>
<path d="M2506 618 c-3 -62 -7 -146 -9 -185 l-3 -73 53 0 53 0 0 163 c0 89 3
172 6 185 6 21 3 22 -44 22 l-50 0 -6 -112z"/>
</g>
</svg>
